<svg height='50px' width='50px'  fill="#000000" xmlns="http://www.w3.org/2000/svg" xmlns:xlink="http://www.w3.org/1999/xlink" version="1.1" x="0px" y="0px" viewBox="0 0 80 80" enable-background="new 0 0 80 80" xml:space="preserve"><g><path fill="#000000" d="M20.042,53.054h-8.083C10.327,53.054,9,51.727,9,50.095V30.013c0-1.632,1.327-2.959,2.958-2.959h8.083   c1.631,0,2.958,1.327,2.958,2.959v20.082C23,51.727,21.673,53.054,20.042,53.054z M13,49.054h6v-18h-6V49.054z"></path></g><g><path fill="#000000" d="M36.035,65.002c-0.664,0-1.318-0.227-1.86-0.667L19.739,52.605l2.522-3.104L35,59.852V20.256l-12.739,10.35   l-2.522-3.104l14.437-11.729c0.894-0.727,2.096-0.871,3.137-0.376C38.354,15.892,39,16.915,39,18.068v43.971   c0,1.153-0.646,2.177-1.688,2.672C36.902,64.906,36.467,65.002,36.035,65.002z"></path></g><g><path fill="#000000" d="M44.078,53.043l-2.156-3.369C45.054,47.668,47,43.77,47,39.5c0-4.021-1.78-7.807-4.646-9.88l2.344-3.24   C48.645,29.234,51,34.139,51,39.5C51,45.12,48.348,50.31,44.078,53.043z"></path></g><g><path fill="#000000" d="M52.084,57.039l-2.168-3.361C54.286,50.86,57,45.404,57,39.438c0-5.701-2.421-10.868-6.477-13.822   l2.355-3.232C57.964,26.088,61,32.464,61,39.438C61,46.749,57.584,53.493,52.084,57.039z"></path></g><g><path fill="#000000" d="M61.259,60.913l-2.518-3.109C63.219,54.18,66,47.119,66,39.377c0-7.292-2.548-14.151-6.648-17.901   l2.699-2.951C67.028,23.075,70,30.871,70,39.377C70,48.296,66.65,56.548,61.259,60.913z"></path></g></svg>
