<svg height='50px' width='50px'  fill="#000000" xmlns="http://www.w3.org/2000/svg" xmlns:xlink="http://www.w3.org/1999/xlink" version="1.1" x="0px" y="0px" viewBox="0 0 80 80" enable-background="new 0 0 80 80" xml:space="preserve"><g><path fill="#000000" d="M33.042,53.054h-8.083c-1.631,0-2.958-1.327-2.958-2.959V30.013c0-1.632,1.327-2.959,2.958-2.959h8.083   c1.631,0,2.958,1.327,2.958,2.959v20.082C36,51.727,34.673,53.054,33.042,53.054z M26,49.054h6v-18h-6V49.054z"></path></g><g><path fill="#000000" d="M49.035,65.002c-0.664,0-1.318-0.227-1.86-0.667L32.739,52.605l2.522-3.104L48,59.852V20.256l-12.739,10.35   l-2.522-3.104l14.437-11.729c0.894-0.727,2.095-0.871,3.137-0.376C51.354,15.892,52,16.915,52,18.068v43.971   c0,1.153-0.646,2.177-1.688,2.672C49.902,64.906,49.467,65.002,49.035,65.002z"></path></g></svg>
